<svg width="1024" height="1024" viewBox="0 0 1024 1024" fill="none" xmlns="http://www.w3.org/2000/svg">
<g id="icon_linux" clip-path="url(#clip0_1_287)">
<mask id="mask0_1_287" style="mask-type:alpha" maskUnits="userSpaceOnUse" x="0" y="0" width="1024" height="1024">
<g id="icon_shape_linux">
<rect width="1024" height="1024" rx="228" fill="white"/>
</g>
</mask>
<g mask="url(#mask0_1_287)">
<g id="icon_background">
<rect width="1024" height="1024" fill="url(#paint0_linear_1_287)"/>
</g>
<g id="icon_fg_linux">
<g id="Frame 1" clip-path="url(#clip1_1_287)">
<g id="Frame 1_2" clip-path="url(#clip2_1_287)">
<path id="Vector" opacity="0.4" fill-rule="evenodd" clip-rule="evenodd" d="M129 726.045V298.922C129 256.838 162.945 222.652 204.926 225.233C242.321 227.533 286.547 232.078 320.5 241.043C360.685 251.652 408.441 274.251 446.212 294.233C466.676 305.062 489.403 310.117 512 309.522V892C490.529 892 469.058 886.826 449.663 876.48C411.383 856.066 361.92 832.391 320.5 821.458C286.922 812.59 243.298 808.049 206.169 805.723C163.702 803.067 129 768.62 129 726.045Z" fill="#FAE6D1"/>
<path id="Vector_2" d="M895 726.045V296.447C895 255.349 862.591 221.613 821.541 223.044C778.315 224.55 724.446 229.033 684.35 241.044C649.589 251.456 609.102 272.342 576.107 291.448C556.378 302.873 534.252 308.936 512 309.522V892C533.471 892 554.942 886.827 574.337 876.484C612.618 856.066 662.079 832.395 703.5 821.458C737.078 812.59 780.701 808.049 817.829 805.723C860.3 803.067 895 768.62 895 726.045Z" fill="#FAE6D1"/>
</g>
<g id="Frame 2" clip-path="url(#clip3_1_287)">
<path id="Vector_3" opacity="0.4" fill-rule="evenodd" clip-rule="evenodd" d="M139 721.51V305.879C139 264.928 172.059 231.661 212.944 234.173C249.362 236.411 292.433 240.834 325.5 249.557C364.636 259.882 411.145 281.872 447.93 301.317C467.859 311.854 489.993 316.773 512 316.194V883C491.09 883 470.179 877.966 451.291 867.897C414.01 848.033 365.838 824.995 325.5 814.356C292.799 805.727 250.314 801.308 214.154 799.044C172.796 796.46 139 762.94 139 721.51Z" fill="#FAE6D1"/>
<path id="Vector_4" d="M885 721.51V303.471C885 263.479 853.437 230.65 813.459 232.043C771.362 233.509 718.899 237.87 679.85 249.558C645.997 259.691 606.567 280.015 574.433 298.606C555.22 309.723 533.671 315.624 512 316.194V883C532.91 883 553.821 877.966 572.709 867.901C609.991 848.033 658.16 824.998 698.5 814.356C731.201 805.727 773.686 801.308 809.844 799.044C851.206 796.46 885 762.94 885 721.51Z" fill="#FAE6D1"/>
</g>
<g id="Frame 3" clip-path="url(#clip4_1_287)">
<path id="Vector_5" opacity="0.4" fill-rule="evenodd" clip-rule="evenodd" d="M149 717.727V312.95C149 273.068 181.173 240.67 220.961 243.116C256.403 245.295 298.32 249.603 330.5 258.099C368.586 268.153 413.849 289.569 449.647 308.507C469.043 318.769 490.583 323.559 512 322.995V875C491.65 875 471.3 870.097 452.918 860.292C416.637 840.946 369.757 818.509 330.5 808.148C298.675 799.745 257.329 795.441 222.139 793.237C181.89 790.72 149 758.075 149 717.727Z" fill="#FAE6D1"/>
<path id="Vector_6" d="M875 717.727V310.604C875 271.657 844.283 239.686 805.377 241.042C764.408 242.469 713.352 246.717 675.35 258.1C642.404 267.967 604.031 287.761 572.759 305.867C554.061 316.694 533.09 322.441 512 322.996V875C532.35 875 552.7 870.097 571.082 860.295C607.364 840.946 654.242 818.513 693.5 808.148C725.324 799.745 766.67 795.441 801.859 793.237C842.112 790.72 875 758.075 875 717.727Z" fill="#FAE6D1"/>
</g>
<g id="Frame 4" clip-path="url(#clip5_1_287)">
<path id="Vector_7" opacity="0.4" fill-rule="evenodd" clip-rule="evenodd" d="M159 713.192V319.907C159 281.157 190.286 249.679 228.979 252.056C263.445 254.173 304.206 258.359 335.5 266.613C372.537 276.383 416.553 297.19 451.365 315.59C470.226 325.561 491.173 330.215 512 329.667V866C492.211 866 472.422 861.236 454.546 851.709C419.264 832.913 373.675 811.113 335.5 801.046C304.552 792.881 264.345 788.7 230.125 786.558C190.984 784.113 159 752.395 159 713.192Z" fill="#FAE6D1"/>
<path id="Vector_8" d="M865 713.192V317.628C865 279.786 835.129 248.723 797.295 250.04C757.455 251.428 707.806 255.555 670.85 266.614C638.812 276.202 601.496 295.433 571.085 313.025C552.902 323.545 532.509 329.128 512 329.668V866C531.789 866 551.578 861.236 569.454 851.713C604.737 832.913 650.323 811.117 688.5 801.046C719.448 792.881 759.654 788.7 793.874 786.558C833.018 784.113 865 752.395 865 713.192Z" fill="#FAE6D1"/>
</g>
</g>
</g>
</g>
</g>
<defs>
<linearGradient id="paint0_linear_1_287" x1="512" y1="0" x2="512" y2="1024" gradientUnits="userSpaceOnUse">
<stop stop-color="#EB9947"/>
<stop offset="1" stop-color="#B86614"/>
</linearGradient>
<clipPath id="clip0_1_287">
<rect width="1024" height="1024" fill="white"/>
</clipPath>
<clipPath id="clip1_1_287">
<rect width="766" height="669" fill="white" transform="translate(129 223)"/>
</clipPath>
<clipPath id="clip2_1_287">
<rect width="766" height="669" fill="white" transform="translate(129 223)"/>
</clipPath>
<clipPath id="clip3_1_287">
<rect width="746" height="651" fill="white" transform="translate(139 232)"/>
</clipPath>
<clipPath id="clip4_1_287">
<rect width="726" height="634" fill="white" transform="translate(149 241)"/>
</clipPath>
<clipPath id="clip5_1_287">
<rect width="706" height="616" fill="white" transform="translate(159 250)"/>
</clipPath>
</defs>
</svg>
