<svg width="1024" height="1024" viewBox="0 0 1024 1024" fill="none" xmlns="http://www.w3.org/2000/svg">
<g id="icon_linux" clip-path="url(#clip0_1_287)">
<mask id="mask0_1_287" style="mask-type:alpha" maskUnits="userSpaceOnUse" x="0" y="0" width="1024" height="1024">
<g id="icon_shape_linux">
<rect width="1024" height="1024" rx="228" fill="white"/>
</g>
</mask>
<g mask="url(#mask0_1_287)">
<g id="icon_background">
<rect width="1024" height="1024" fill="url(#paint0_linear_1_287)"/>
</g>
<g id="icon_fg_linux">
<g id="Frame 1" clip-path="url(#clip1_1_287)">
<g id="Local library" clip-path="url(#clip2_1_287)">
<path id="Vector" d="M512 492.875C434.65 420.625 336.9 370.05 228.1 350.5C176.675 341.575 129.5 382.375 129.5 434.65V699.85C129.5 771.25 160.1 808.65 202.175 814.175C308.425 827.775 404.9 871.55 483.95 936.15C498.825 948.475 523.05 949.75 537.925 937.85C617.4 872.825 714.725 828.2 821.825 814.6C861.775 809.075 894.5 769.55 894.5 728.75V434.65C894.5 382.375 847.325 341.575 795.9 350.5C687.1 370.05 589.35 420.625 512 492.875ZM512 342C582.55 342 639.5 285.05 639.5 214.5C639.5 143.95 582.55 87 512 87C441.45 87 384.5 143.95 384.5 214.5C384.5 285.05 441.45 342 512 342Z" fill="url(#paint1_linear_1_287)"/>
</g>
<g id="Local library_2" clip-path="url(#clip3_1_287)">
<path id="Vector_2" d="M512 495.5C445.267 433.167 360.933 389.533 267.067 372.667C222.7 364.967 182 400.167 182 445.267V674.067C182 735.667 208.4 767.933 244.7 772.7C336.367 784.433 419.6 822.2 487.8 877.933C500.633 888.567 521.533 889.667 534.367 879.4C602.933 823.3 686.9 784.8 779.3 773.067C813.767 768.3 842 734.2 842 699V445.267C842 400.167 801.3 364.967 756.933 372.667C663.067 389.533 578.733 433.167 512 495.5Z" fill="url(#paint2_linear_1_287)"/>
</g>
<g id="Local library_3" clip-path="url(#clip4_1_287)">
<path id="Vector_3" d="M512 498.125C455.883 445.708 384.967 409.017 306.033 394.833C268.725 388.358 234.5 417.958 234.5 455.883V648.283C234.5 700.083 256.7 727.217 287.225 731.225C364.308 741.092 434.3 772.85 491.65 819.717C502.442 828.658 520.017 829.583 530.808 820.95C588.467 773.775 659.075 741.4 736.775 731.533C765.758 727.525 789.5 698.85 789.5 669.25V455.883C789.5 417.958 755.275 388.358 717.967 394.833C639.033 409.017 568.117 445.708 512 498.125Z" fill="url(#paint3_linear_1_287)"/>
</g>
</g>
</g>
</g>
</g>
<defs>
<linearGradient id="paint0_linear_1_287" x1="512" y1="0" x2="512" y2="1024" gradientUnits="userSpaceOnUse">
<stop stop-color="#F88807"/>
<stop offset="1" stop-color="#C76D05"/>
</linearGradient>
<linearGradient id="paint1_linear_1_287" x1="512" y1="87" x2="512" y2="946.119" gradientUnits="userSpaceOnUse">
<stop stop-color="#FFFAF5" stop-opacity="0.8"/>
<stop offset="1" stop-color="#FFFAF5" stop-opacity="0.4"/>
</linearGradient>
<linearGradient id="paint2_linear_1_287" x1="512" y1="371.605" x2="512" y2="886.534" gradientUnits="userSpaceOnUse">
<stop stop-color="#FFFAF5" stop-opacity="0.8"/>
<stop offset="1" stop-color="#FFFAF5" stop-opacity="0.4"/>
</linearGradient>
<linearGradient id="paint3_linear_1_287" x1="512" y1="393.941" x2="512" y2="826.949" gradientUnits="userSpaceOnUse">
<stop stop-color="#FFFAF5" stop-opacity="0.8"/>
<stop offset="1" stop-color="#FFFAF5" stop-opacity="0.4"/>
</linearGradient>
<clipPath id="clip0_1_287">
<rect width="1024" height="1024" fill="white"/>
</clipPath>
<clipPath id="clip1_1_287">
<rect width="1020" height="1020" fill="white" transform="translate(2 2)"/>
</clipPath>
<clipPath id="clip2_1_287">
<rect width="1020" height="1020" fill="white" transform="translate(2 2)"/>
</clipPath>
<clipPath id="clip3_1_287">
<rect width="880" height="880" fill="white" transform="translate(72 72)"/>
</clipPath>
<clipPath id="clip4_1_287">
<rect width="740" height="740" fill="white" transform="translate(142 142)"/>
</clipPath>
</defs>
</svg>
